<svg width="11" height="10" viewBox="0 0 11 10" fill="none" xmlns="http://www.w3.org/2000/svg">
<path d="M10.1818 5.30838C10.1818 4.98196 10.1553 4.65377 10.0985 4.33264H5.5498V6.18177H8.15466C8.04656 6.77816 7.69925 7.30572 7.19068 7.64097V8.84079H8.74473C9.65732 8.00444 10.1818 6.76933 10.1818 5.30838Z" fill="#4285F4"/>
<path d="M5.54976 10.0001C6.85041 10.0001 7.94728 9.57482 8.74646 8.84082L7.19241 7.641C6.76004 7.93389 6.20186 8.09975 5.55153 8.09975C4.2934 8.09975 3.22665 7.25459 2.8439 6.11829H1.24023V7.35516C2.0589 8.97668 3.72636 10.0001 5.54976 10.0001Z" fill="#34A853"/>
<path d="M2.84219 6.11827C2.64018 5.52188 2.64018 4.8761 2.84219 4.27972V3.04285H1.24029C0.556296 4.3997 0.556296 5.99828 1.24029 7.35514L2.84219 6.11827Z" fill="#FBBC04"/>
<path d="M5.54976 2.2965C6.2373 2.28591 6.9018 2.54352 7.39973 3.01639L8.77658 1.64542C7.90475 0.83025 6.74763 0.382082 5.54976 0.396198C3.72636 0.396198 2.0589 1.41957 1.24023 3.04286L2.84213 4.27973C3.22311 3.14167 4.29163 2.2965 5.54976 2.2965Z" fill="#FE2C25"/>
</svg>
