<svg width="20" height="20" viewBox="0 0 20 20" fill="none" xmlns="http://www.w3.org/2000/svg">
<path d="M1 3.32227C1 2.07962 2.00736 1.07227 3.25 1.07227H5.5C6.74264 1.07227 7.75 2.07963 7.75 3.32227V5.57227C7.75 6.81491 6.74264 7.82227 5.5 7.82227H3.25C2.00736 7.82227 1 6.81491 1 5.57227V3.32227Z" stroke="#5C5F62" stroke-width="1.8" stroke-linecap="round" stroke-linejoin="round"/>
<path d="M12.25 3.32227C12.25 2.07962 13.2574 1.07227 14.5 1.07227H16.75C17.9926 1.07227 19 2.07963 19 3.32227V5.57227C19 6.81491 17.9926 7.82227 16.75 7.82227H14.5C13.2574 7.82227 12.25 6.81491 12.25 5.57227V3.32227Z" stroke="#5C5F62" stroke-width="1.8" stroke-linecap="round" stroke-linejoin="round"/>
<path d="M1 14.5723C1 13.3296 2.00736 12.3223 3.25 12.3223H5.5C6.74264 12.3223 7.75 13.3296 7.75 14.5723V16.8223C7.75 18.0649 6.74264 19.0723 5.5 19.0723H3.25C2.00736 19.0723 1 18.0649 1 16.8223V14.5723Z" stroke="#5C5F62" stroke-width="1.8" stroke-linecap="round" stroke-linejoin="round"/>
<path d="M12.25 14.5723C12.25 13.3296 13.2574 12.3223 14.5 12.3223H16.75C17.9926 12.3223 19 13.3296 19 14.5723V16.8223C19 18.0649 17.9926 19.0723 16.75 19.0723H14.5C13.2574 19.0723 12.25 18.0649 12.25 16.8223V14.5723Z" stroke="#5C5F62" stroke-width="1.8" stroke-linecap="round" stroke-linejoin="round"/>
</svg>
